<?xml version="1.0" encoding="UTF-8" standalone="no"?>
<!DOCTYPE svg PUBLIC "-//W3C//DTD SVG 1.1//EN"
 "http://www.w3.org/Graphics/SVG/1.1/DTD/svg11.dtd">
<!-- Generated by graphviz version 2.38.0 (20140413.2041)
 -->
<!-- Title: dependency&#45;cruiser output Pages: 1 -->
<svg width="402pt" height="316pt"
 viewBox="0.00 0.00 402.00 316.00" xmlns="http://www.w3.org/2000/svg" xmlns:xlink="http://www.w3.org/1999/xlink">
<g id="graph0" class="graph" transform="scale(1 1) rotate(0) translate(4 312)">
<title>dependency&#45;cruiser output</title>
<g id="clust1" class="cluster"><title>cluster_src</title>
<path fill="#ffffff" stroke="black" stroke-width="2" d="M79.5,-158C79.5,-158 374,-158 374,-158 380,-158 386,-164 386,-170 386,-170 386,-288 386,-288 386,-294 380,-300 374,-300 374,-300 79.5,-300 79.5,-300 73.5,-300 67.5,-294 67.5,-288 67.5,-288 67.5,-170 67.5,-170 67.5,-164 73.5,-158 79.5,-158"/>
<text text-anchor="middle" x="226.75" y="-288.8" font-family="Helvetica,sans-Serif" font-weight="bold" font-size="9.00">src</text>
</g>
<g id="clust2" class="cluster"><title>cluster_test</title>
<path fill="#ffffff" stroke="black" stroke-width="2" d="M20,-8C20,-8 185,-8 185,-8 191,-8 197,-14 197,-20 197,-20 197,-138 197,-138 197,-144 191,-150 185,-150 185,-150 20,-150 20,-150 14,-150 8,-144 8,-138 8,-138 8,-20 8,-20 8,-14 14,-8 20,-8"/>
<text text-anchor="middle" x="102.5" y="-138.8" font-family="Helvetica,sans-Serif" font-weight="bold" font-size="9.00">test</text>
</g>
<!-- src/app.js -->
<g id="node1" class="node"><title>src/app.js</title>
<g id="a_node1"><a xlink:href="src/app.js" xlink:title="app.js">
<path fill="#ffffcc" stroke="black" d="M123.5,-229C123.5,-229 81.5,-229 81.5,-229 78.5,-229 75.5,-226 75.5,-223 75.5,-223 75.5,-217 75.5,-217 75.5,-214 78.5,-211 81.5,-211 81.5,-211 123.5,-211 123.5,-211 126.5,-211 129.5,-214 129.5,-217 129.5,-217 129.5,-223 129.5,-223 129.5,-226 126.5,-229 123.5,-229"/>
<text text-anchor="middle" x="102.5" y="-217.8" font-family="Helvetica,sans-Serif" font-size="9.00">app.js</text>
</a>
</g>
</g>
<!-- src/lego&#45;1&#45;factory&#45;pattern.js -->
<g id="node2" class="node"><title>src/lego&#45;1&#45;factory&#45;pattern.js</title>
<g id="a_node2"><a xlink:href="src/lego-1-factory-pattern.js" xlink:title="lego&#45;1&#45;factory&#45;pattern.js">
<path fill="#ffffcc" stroke="black" d="M342,-184C342,-184 241,-184 241,-184 238,-184 235,-181 235,-178 235,-178 235,-172 235,-172 235,-169 238,-166 241,-166 241,-166 342,-166 342,-166 345,-166 348,-169 348,-172 348,-172 348,-178 348,-178 348,-181 345,-184 342,-184"/>
<text text-anchor="middle" x="291.5" y="-172.8" font-family="Helvetica,sans-Serif" font-size="9.00">lego&#45;1&#45;factory&#45;pattern.js</text>
</a>
</g>
</g>
<!-- src/app.js&#45;&gt;src/lego&#45;1&#45;factory&#45;pattern.js -->
<g id="edge1" class="edge"><title>src/app.js&#45;&gt;src/lego&#45;1&#45;factory&#45;pattern.js</title>
<path fill="none" stroke="#999999" d="M129.569,-211.404C149.943,-204.904 179.061,-196.088 205,-190 212.898,-188.146 221.254,-186.409 229.527,-184.821"/>
<polygon fill="#999999" stroke="#999999" points="230.074,-186.499 234.663,-183.852 229.425,-183.06 230.074,-186.499"/>
</g>
<!-- src/lego&#45;2&#45;constructor&#45;pattern.js -->
<g id="node3" class="node"><title>src/lego&#45;2&#45;constructor&#45;pattern.js</title>
<g id="a_node3"><a xlink:href="src/lego-2-constructor-pattern.js" xlink:title="lego&#45;2&#45;constructor&#45;pattern.js">
<path fill="#ffffcc" stroke="black" d="M352,-214C352,-214 231,-214 231,-214 228,-214 225,-211 225,-208 225,-208 225,-202 225,-202 225,-199 228,-196 231,-196 231,-196 352,-196 352,-196 355,-196 358,-199 358,-202 358,-202 358,-208 358,-208 358,-211 355,-214 352,-214"/>
<text text-anchor="middle" x="291.5" y="-202.8" font-family="Helvetica,sans-Serif" font-size="9.00">lego&#45;2&#45;constructor&#45;pattern.js</text>
</a>
</g>
</g>
<!-- src/app.js&#45;&gt;src/lego&#45;2&#45;constructor&#45;pattern.js -->
<g id="edge2" class="edge"><title>src/app.js&#45;&gt;src/lego&#45;2&#45;constructor&#45;pattern.js</title>
<path fill="none" stroke="#999999" d="M129.502,-217.914C152.84,-216.042 188.193,-213.206 219.831,-210.669"/>
<polygon fill="#999999" stroke="#999999" points="220.031,-212.408 224.875,-210.264 219.751,-208.92 220.031,-212.408"/>
</g>
<!-- src/lego&#45;3&#45;constructor&#45;prototype&#45;pattern.js -->
<g id="node4" class="node"><title>src/lego&#45;3&#45;constructor&#45;prototype&#45;pattern.js</title>
<g id="a_node4"><a xlink:href="src/lego-3-constructor-prototype-pattern.js" xlink:title="lego&#45;3&#45;constructor&#45;prototype&#45;pattern.js">
<path fill="#ffffcc" stroke="black" d="M372,-244C372,-244 211,-244 211,-244 208,-244 205,-241 205,-238 205,-238 205,-232 205,-232 205,-229 208,-226 211,-226 211,-226 372,-226 372,-226 375,-226 378,-229 378,-232 378,-232 378,-238 378,-238 378,-241 375,-244 372,-244"/>
<text text-anchor="middle" x="291.5" y="-232.8" font-family="Helvetica,sans-Serif" font-size="9.00">lego&#45;3&#45;constructor&#45;prototype&#45;pattern.js</text>
</a>
</g>
</g>
<!-- src/app.js&#45;&gt;src/lego&#45;3&#45;constructor&#45;prototype&#45;pattern.js -->
<g id="edge3" class="edge"><title>src/app.js&#45;&gt;src/lego&#45;3&#45;constructor&#45;prototype&#45;pattern.js</title>
<path fill="none" stroke="#999999" d="M129.502,-222.086C147.942,-223.565 173.883,-225.646 199.566,-227.706"/>
<polygon fill="#999999" stroke="#999999" points="199.572,-229.462 204.696,-228.117 199.852,-225.973 199.572,-229.462"/>
</g>
<!-- src/lego&#45;4&#45;class.js -->
<g id="node5" class="node"><title>src/lego&#45;4&#45;class.js</title>
<g id="a_node5"><a xlink:href="src/lego-4-class.js" xlink:title="lego&#45;4&#45;class.js">
<path fill="#ffffcc" stroke="black" d="M324.5,-274C324.5,-274 258.5,-274 258.5,-274 255.5,-274 252.5,-271 252.5,-268 252.5,-268 252.5,-262 252.5,-262 252.5,-259 255.5,-256 258.5,-256 258.5,-256 324.5,-256 324.5,-256 327.5,-256 330.5,-259 330.5,-262 330.5,-262 330.5,-268 330.5,-268 330.5,-271 327.5,-274 324.5,-274"/>
<text text-anchor="middle" x="291.5" y="-262.8" font-family="Helvetica,sans-Serif" font-size="9.00">lego&#45;4&#45;class.js</text>
</a>
</g>
</g>
<!-- src/app.js&#45;&gt;src/lego&#45;4&#45;class.js -->
<g id="edge4" class="edge"><title>src/app.js&#45;&gt;src/lego&#45;4&#45;class.js</title>
<path fill="none" stroke="#999999" d="M129.569,-228.596C149.943,-235.096 179.061,-243.912 205,-250 218.72,-253.22 233.826,-256.089 247.474,-258.434"/>
<polygon fill="#999999" stroke="#999999" points="247.209,-260.164 252.431,-259.274 247.793,-256.713 247.209,-260.164"/>
</g>
<!-- test/lego&#45;1&#45;factory&#45;pattern.test.js -->
<g id="node6" class="node"><title>test/lego&#45;1&#45;factory&#45;pattern.test.js</title>
<g id="a_node6"><a xlink:href="test/lego-1-factory-pattern.test.js" xlink:title="lego&#45;1&#45;factory&#45;pattern.test.js">
<path fill="#ffffcc" stroke="black" d="M162,-34C162,-34 43,-34 43,-34 40,-34 37,-31 37,-28 37,-28 37,-22 37,-22 37,-19 40,-16 43,-16 43,-16 162,-16 162,-16 165,-16 168,-19 168,-22 168,-22 168,-28 168,-28 168,-31 165,-34 162,-34"/>
<text text-anchor="middle" x="102.5" y="-22.8" font-family="Helvetica,sans-Serif" font-size="9.00">lego&#45;1&#45;factory&#45;pattern.test.js</text>
</a>
</g>
</g>
<!-- test/lego&#45;1&#45;factory&#45;pattern.test.js&#45;&gt;src/lego&#45;1&#45;factory&#45;pattern.js -->
<g id="edge5" class="edge"><title>test/lego&#45;1&#45;factory&#45;pattern.test.js&#45;&gt;src/lego&#45;1&#45;factory&#45;pattern.js</title>
<path fill="none" stroke="#999999" d="M168.345,-28.4279C178.444,-30.887 188.375,-34.5678 197,-40 244.237,-69.7516 273.915,-132.973 285.259,-161.056"/>
<polygon fill="#999999" stroke="#999999" points="283.698,-161.868 287.164,-165.875 286.953,-160.581 283.698,-161.868"/>
</g>
<!-- test/lego&#45;2&#45;constructor&#45;pattern.test.js -->
<g id="node7" class="node"><title>test/lego&#45;2&#45;constructor&#45;pattern.test.js</title>
<g id="a_node7"><a xlink:href="test/lego-2-constructor-pattern.test.js" xlink:title="lego&#45;2&#45;constructor&#45;pattern.test.js">
<path fill="#ffffcc" stroke="black" d="M171.5,-64C171.5,-64 33.5,-64 33.5,-64 30.5,-64 27.5,-61 27.5,-58 27.5,-58 27.5,-52 27.5,-52 27.5,-49 30.5,-46 33.5,-46 33.5,-46 171.5,-46 171.5,-46 174.5,-46 177.5,-49 177.5,-52 177.5,-52 177.5,-58 177.5,-58 177.5,-61 174.5,-64 171.5,-64"/>
<text text-anchor="middle" x="102.5" y="-52.8" font-family="Helvetica,sans-Serif" font-size="9.00">lego&#45;2&#45;constructor&#45;pattern.test.js</text>
</a>
</g>
</g>
<!-- test/lego&#45;2&#45;constructor&#45;pattern.test.js&#45;&gt;src/lego&#45;2&#45;constructor&#45;pattern.js -->
<g id="edge6" class="edge"><title>test/lego&#45;2&#45;constructor&#45;pattern.test.js&#45;&gt;src/lego&#45;2&#45;constructor&#45;pattern.js</title>
<path fill="none" stroke="#999999" d="M177.843,-57.0656C185.074,-59.9956 191.684,-64.168 197,-70 215.004,-89.7516 187.141,-170.118 205,-190 209.249,-194.73 214.419,-198.308 220.092,-200.986"/>
<polygon fill="#999999" stroke="#999999" points="219.678,-202.71 224.966,-203.029 221.031,-199.482 219.678,-202.71"/>
</g>
<!-- test/lego&#45;3&#45;constructor&#45;prototype&#45;pattern.js -->
<g id="node8" class="node"><title>test/lego&#45;3&#45;constructor&#45;prototype&#45;pattern.js</title>
<g id="a_node8"><a xlink:href="test/lego-3-constructor-prototype-pattern.js" xlink:title="lego&#45;3&#45;constructor&#45;prototype&#45;pattern.js">
<path fill="#ffffcc" stroke="black" d="M183,-94C183,-94 22,-94 22,-94 19,-94 16,-91 16,-88 16,-88 16,-82 16,-82 16,-79 19,-76 22,-76 22,-76 183,-76 183,-76 186,-76 189,-79 189,-82 189,-82 189,-88 189,-88 189,-91 186,-94 183,-94"/>
<text text-anchor="middle" x="102.5" y="-82.8" font-family="Helvetica,sans-Serif" font-size="9.00">lego&#45;3&#45;constructor&#45;prototype&#45;pattern.js</text>
</a>
</g>
</g>
<!-- test/lego&#45;3&#45;constructor&#45;prototype&#45;pattern.js&#45;&gt;src/lego&#45;3&#45;constructor&#45;prototype&#45;pattern.js -->
<g id="edge7" class="edge"><title>test/lego&#45;3&#45;constructor&#45;prototype&#45;pattern.js&#45;&gt;src/lego&#45;3&#45;constructor&#45;prototype&#45;pattern.js</title>
<path fill="none" stroke="#999999" d="M189.336,-93.2635C192.101,-95.2147 194.674,-97.4485 197,-100 215.004,-119.752 187.141,-200.118 205,-220 205.881,-220.981 206.802,-221.912 207.759,-222.797"/>
<polygon fill="#999999" stroke="#999999" points="206.647,-224.148 211.619,-225.977 208.873,-221.447 206.647,-224.148"/>
</g>
<!-- test/lego&#45;4&#45;class.test.js -->
<g id="node9" class="node"><title>test/lego&#45;4&#45;class.test.js</title>
<g id="a_node9"><a xlink:href="test/lego-4-class.test.js" xlink:title="lego&#45;4&#45;class.test.js">
<path fill="#ffffcc" stroke="black" d="M144,-124C144,-124 61,-124 61,-124 58,-124 55,-121 55,-118 55,-118 55,-112 55,-112 55,-109 58,-106 61,-106 61,-106 144,-106 144,-106 147,-106 150,-109 150,-112 150,-112 150,-118 150,-118 150,-121 147,-124 144,-124"/>
<text text-anchor="middle" x="102.5" y="-112.8" font-family="Helvetica,sans-Serif" font-size="9.00">lego&#45;4&#45;class.test.js</text>
</a>
</g>
</g>
<!-- test/lego&#45;4&#45;class.test.js&#45;&gt;src/lego&#45;4&#45;class.js -->
<g id="edge8" class="edge"><title>test/lego&#45;4&#45;class.test.js&#45;&gt;src/lego&#45;4&#45;class.js</title>
<path fill="none" stroke="#999999" d="M149.927,-124.147C167.454,-130.005 185.839,-139.54 197,-155 209.401,-172.177 190.706,-234.363 205,-250 215.597,-261.593 231.736,-266.232 247.149,-267.659"/>
<polygon fill="#999999" stroke="#999999" points="247.228,-269.419 252.339,-268.025 247.474,-265.928 247.228,-269.419"/>
</g>
</g>
</svg>
